<svg width="36" height="37" viewBox="0 0 34 38" fill="none" xmlns="http://www.w3.org/2000/svg">
<g filter="url(#filter0_d)">
<path d="M29.1875 3.89766C29.1801 3.12675 28.8691 2.38984 28.322 1.84668C27.7749 1.30353 27.0358 0.997908 26.2648 0.996094L7.72109 0.9375C6.95095 0.937652 6.21229 1.24318 5.66706 1.78709C5.12183 2.331 4.81452 3.06892 4.8125 3.83906V22.9688C4.8125 24.5684 6.11797 25.7812 7.72109 25.7812H23.5625L22.8008 23.2031L29.1875 29.0625V3.89766ZM21.0225 19.3248C21.0225 19.3248 20.5115 18.716 20.085 18.1928C21.9447 17.6689 22.6543 16.5234 22.6543 16.5234C22.1435 16.8623 21.5961 17.1424 21.0225 17.3584C20.3601 17.6334 19.6705 17.8375 18.9652 17.9672C17.75 18.1904 16.5038 18.1856 15.2902 17.9531C14.5764 17.8206 13.8778 17.6164 13.2049 17.3438C12.8489 17.2074 12.5028 17.0467 12.1689 16.8627C12.1262 16.8346 12.084 16.8205 12.0412 16.7918C12.0125 16.7777 11.9984 16.7637 11.9826 16.7637C11.7271 16.6219 11.5854 16.5229 11.5854 16.5229C11.5854 16.5229 12.2662 17.6414 14.0686 18.1787C13.6426 18.7166 13.1176 19.3395 13.1176 19.3395C9.98223 19.2404 8.79043 17.2025 8.79043 17.2025C8.79043 12.6873 10.8336 9.02168 10.8336 9.02168C12.8768 7.50703 14.8062 7.54981 14.8062 7.54981L14.948 7.71973C12.3939 8.4416 11.2309 9.55957 11.2309 9.55957C11.2309 9.55957 11.5426 9.38965 12.0676 9.16289C13.5857 8.49785 14.7922 8.32793 15.2902 8.27168C15.3697 8.25516 15.4505 8.24555 15.5316 8.24297C16.4824 8.1196 17.4445 8.11016 18.3975 8.21484C19.8938 8.38673 21.3435 8.84317 22.6684 9.55957C22.6684 9.55957 21.5475 8.49609 19.1352 7.77539L19.3338 7.54922C19.3338 7.54922 21.2773 7.50645 23.307 9.02344C23.307 9.02344 25.3502 12.6891 25.3502 17.2043C25.3502 17.1879 24.1578 19.2258 21.0225 19.3248Z" fill="#FFFFFD" fill-opacity="0.8"/>
<path d="M14.4248 12.7734C13.6162 12.7734 12.9775 13.4672 12.9775 14.3303C12.9775 15.1934 13.6303 15.8871 14.4248 15.8871C15.2334 15.8871 15.8721 15.1939 15.8721 14.3303C15.8867 13.4654 15.2334 12.7734 14.4248 12.7734ZM19.6033 12.7734C18.7947 12.7734 18.1561 13.4672 18.1561 14.3303C18.1561 15.1934 18.8088 15.8871 19.6033 15.8871C20.4125 15.8871 21.0506 15.1939 21.0506 14.3303C21.0506 13.4666 20.3984 12.7734 19.6033 12.7734Z" fill="#FFFFFD" fill-opacity="0.8"/>
</g>
<defs>
<filter id="filter0_d" x="-2" y="0" width="38" height="38" filterUnits="userSpaceOnUse" color-interpolation-filters="sRGB">
<feFlood flood-opacity="0" result="BackgroundImageFix"/>
<feColorMatrix in="SourceAlpha" type="matrix" values="0 0 0 0 0 0 0 0 0 0 0 0 0 0 0 0 0 0 127 0"/>
<feOffset dy="4"/>
<feGaussianBlur stdDeviation="2"/>
<feColorMatrix type="matrix" values="0 0 0 0 0 0 0 0 0 0 0 0 0 0 0 0 0 0 0.25 0"/>
<feBlend mode="normal" in2="BackgroundImageFix" result="effect1_dropShadow"/>
<feBlend mode="normal" in="SourceGraphic" in2="effect1_dropShadow" result="shape"/>
</filter>
</defs>
</svg>
