<svg width="36" height="37" viewBox="0 0 36 37" fill="none" xmlns="http://www.w3.org/2000/svg">
<g filter="url(#filter0_d)">
<path d="M18 1.875C10.752 1.875 4.875 7.9043 4.875 15.334C4.875 21.2812 8.63672 26.3203 13.8516 28.1016C13.9247 28.1175 13.9994 28.1253 14.0742 28.125C14.5605 28.125 14.748 27.7676 14.748 27.457C14.748 27.1348 14.7363 26.291 14.7305 25.166C14.2963 25.2678 13.8522 25.3209 13.4062 25.3242C10.8809 25.3242 10.3066 23.3613 10.3066 23.3613C9.70898 21.8086 8.84766 21.3926 8.84766 21.3926C7.70508 20.5898 8.8418 20.5664 8.92969 20.5664H8.93555C10.2539 20.6836 10.9453 21.9609 10.9453 21.9609C11.6016 23.1094 12.4805 23.4316 13.2656 23.4316C13.7848 23.4213 14.2959 23.3015 14.7656 23.0801C14.8828 22.2129 15.2227 21.6211 15.5977 21.2812C12.6855 20.9414 9.62109 19.7871 9.62109 14.6309C9.62109 13.1602 10.1309 11.959 10.9688 11.0215C10.834 10.6816 10.3828 9.31055 11.0977 7.45898C11.1935 7.43604 11.2921 7.42619 11.3906 7.42969C11.8652 7.42969 12.9375 7.61133 14.707 8.8418C16.8572 8.24022 19.1311 8.24022 21.2812 8.8418C23.0508 7.61133 24.123 7.42969 24.5977 7.42969C24.6962 7.42619 24.7947 7.43604 24.8906 7.45898C25.6055 9.31055 25.1543 10.6816 25.0195 11.0215C25.8574 11.9648 26.3672 13.166 26.3672 14.6309C26.3672 19.7988 23.2969 20.9355 20.373 21.2695C20.8418 21.6855 21.2637 22.5059 21.2637 23.7598C21.2637 25.5586 21.2461 27.0117 21.2461 27.4512C21.2461 27.7676 21.4277 28.125 21.9141 28.125C21.9928 28.1253 22.0713 28.1175 22.1484 28.1016C27.3691 26.3203 31.125 21.2754 31.125 15.334C31.125 7.9043 25.248 1.875 18 1.875Z" fill="#FFFFFD" fill-opacity="0.8"/>
</g>
<defs>
<filter id="filter0_d" x="-1" y="0" width="38" height="38" filterUnits="userSpaceOnUse" color-interpolation-filters="sRGB">
<feFlood flood-opacity="0" result="BackgroundImageFix"/>
<feColorMatrix in="SourceAlpha" type="matrix" values="0 0 0 0 0 0 0 0 0 0 0 0 0 0 0 0 0 0 127 0"/>
<feOffset dy="4"/>
<feGaussianBlur stdDeviation="2"/>
<feColorMatrix type="matrix" values="0 0 0 0 0 0 0 0 0 0 0 0 0 0 0 0 0 0 0.25 0"/>
<feBlend mode="normal" in2="BackgroundImageFix" result="effect1_dropShadow"/>
<feBlend mode="normal" in="SourceGraphic" in2="effect1_dropShadow" result="shape"/>
</filter>
</defs>
</svg>
