<svg width="36" height="37" viewBox="0 0 36 37" fill="none" xmlns="http://www.w3.org/2000/svg">
<g filter="url(#filter0_d)">
<path d="M29.0256 1.875H7.11797C5.9209 1.875 4.875 2.73633 4.875 3.91934V25.8756C4.875 27.065 5.9209 28.125 7.11797 28.125H29.0191C30.2227 28.125 31.125 27.058 31.125 25.8756V3.91934C31.132 2.73633 30.2227 1.875 29.0256 1.875ZM13.0119 23.7557H9.25137V12.0633H13.0119V23.7557ZM11.2617 10.2855H11.2348C10.0312 10.2855 9.25195 9.38965 9.25195 8.26816C9.25195 7.12617 10.0518 6.25137 11.2822 6.25137C12.5127 6.25137 13.2656 7.11973 13.2926 8.26816C13.292 9.38965 12.5127 10.2855 11.2617 10.2855ZM26.7557 23.7557H22.9951V17.3625C22.9951 15.8309 22.4479 14.7844 21.0873 14.7844C20.0479 14.7844 19.4326 15.4875 19.159 16.1725C19.0564 16.4186 19.0289 16.7537 19.0289 17.0959V23.7557H15.2684V12.0633H19.0289V13.6904C19.5762 12.9111 20.4311 11.7896 22.4203 11.7896C24.8889 11.7896 26.7562 13.4168 26.7562 16.9248L26.7557 23.7557Z" fill="#FFFFFD" fill-opacity="0.8"/>
</g>
<defs>
<filter id="filter0_d" x="-1" y="0" width="38" height="38" filterUnits="userSpaceOnUse" color-interpolation-filters="sRGB">
<feFlood flood-opacity="0" result="BackgroundImageFix"/>
<feColorMatrix in="SourceAlpha" type="matrix" values="0 0 0 0 0 0 0 0 0 0 0 0 0 0 0 0 0 0 127 0"/>
<feOffset dy="4"/>
<feGaussianBlur stdDeviation="2"/>
<feColorMatrix type="matrix" values="0 0 0 0 0 0 0 0 0 0 0 0 0 0 0 0 0 0 0.25 0"/>
<feBlend mode="normal" in2="BackgroundImageFix" result="effect1_dropShadow"/>
<feBlend mode="normal" in="SourceGraphic" in2="effect1_dropShadow" result="shape"/>
</filter>
</defs>
</svg>
